<?xml version="1.0" encoding="utf-8"?>
<!-- Generator: Adobe Illustrator 23.0.1, SVG Export Plug-In . SVG Version: 6.00 Build 0)  -->
<svg version="1.1" xmlns="http://www.w3.org/2000/svg" xmlns:xlink="http://www.w3.org/1999/xlink" x="0px" y="0px"
	 viewBox="0 0 1000 180" style="enable-background:new 0 0 1000 180;" xml:space="preserve">
<style type="text/css">
	.st0{display:none;}
	.st1{display:inline;stroke:#FFFFFF;stroke-miterlimit:10;}
	.st2{display:inline;}
	.st3{fill:#1E2225;}
	.st4{fill:none;}
	.st5{display:none;enable-background:new    ;}
	.st6{display:inline;fill:#FFFFFF;}
	.st7{display:none;fill:none;}
	.st8{display:inline;fill:#1E2225;}
	.st9{fill:#FFFFFF;}
	.st10{enable-background:new    ;}
	.st11{fill:#151515;}
	.st12{fill:#F8F9FA;}
	.st13{fill:#1A1A1A;}
</style>
<g id="Capa_1" class="st0">
	<g>
		<rect x="-50" y="-45" class="st1" width="1085" height="271"/>
	</g>
	<g>
		<g id="Capa_3" class="st2">
			<rect class="st3" width="1000" height="180"/>
		</g>
		<g class="st2">
			<rect x="209.2" y="51.4" class="st4" width="56.4" height="78.5"/>
			<g class="st5">
				<path class="st6" d="M105.9,128.8V51.4h20.2c2.9,0,5.5,0.1,7.7,0.4s4.5,0.9,6.7,1.8c2.2,0.9,4.1,2,5.5,3.5
					c1.4,1.4,2.6,3.4,3.5,5.9c0.8,2.3,1.2,5,1.2,8c0,0.2,0,0.4,0,0.7c-0.1,9-3.9,14.2-11.3,15.5c4.4,0.6,7.8,2.5,10.2,5.6
					s3.5,7.5,3.6,13c0,0.2,0,0.4,0,0.5c0,7.6-2,13.2-5.9,16.8c-4,3.7-9.9,5.6-17.5,5.6h-23.9V128.8z M123,82.3h3.3
					c3.7,0,6.2-0.8,7.5-2.5c1.3-1.6,2-4.3,2-7.8c0-6.1-3.3-9.1-10-9.1H123V82.3z M123,116.8h3.6c3.7,0,6.3-0.9,7.8-2.7
					s2.2-4.7,2.2-8.5c0-4.4-0.8-7.4-2.3-9.2s-4.2-2.7-8-2.7H123V116.8z"/>
			</g>
			<rect x="240.2" y="51.4" class="st7" width="705.8" height="78.5"/>
			<g class="st5">
				<path class="st8" d="M253.1,128.8V64h-11.9V51.4H282V64h-11.8v64.7h-17.1V128.8z"/>
				<path class="st8" d="M287.8,128.8V51.4h15.6v27.1c3.9-3.9,8.4-5.9,13.5-5.9c3.3,0,5.8,1.2,7.5,3.6s2.6,5.5,2.6,9.2v43.4h-15.6
					v-41c0-1.4-0.2-2.4-0.7-3.1c-0.4-0.7-1.2-1-2.4-1c-1.4,0-3,0.7-4.9,2v43.1L287.8,128.8L287.8,128.8z"/>
				<path class="st8" d="M354.5,129.8c-6.1,0-10.8-1.6-14.1-4.9c-3.3-3.3-5-7.9-5-13.8V91.2c0-5.9,1.7-10.5,5-13.8s8.1-4.9,14.1-4.9
					c6.1,0,10.7,1.6,13.8,4.7c3.1,3.2,4.6,7.8,4.6,13.9V102h-22.1v9.7c0,2.2,0.3,3.9,0.8,5.1c0.6,1.1,1.5,1.7,2.8,1.7
					c2.6,0,3.9-1.8,3.9-5.4v-3.7h14.5v3.2c0,5.5-1.6,9.7-4.8,12.6C364.8,128.3,360.3,129.8,354.5,129.8z M350.8,94.8h7.6v-5.5
					c0-2.1-0.3-3.5-1-4.4s-1.7-1.3-2.9-1.3c-1.2,0-2.1,0.5-2.7,1.5s-0.9,2.7-0.9,5.1v4.6C350.9,94.8,350.8,94.8,350.8,94.8z"/>
				<path class="st8" d="M381.3,128.8V73.5h15.3V78c3.7-3.7,8.1-5.5,13.2-5.5c2.2,0,4.1,0.6,5.7,1.7s2.9,2.7,3.7,4.9
					c3.9-4.4,8.6-6.5,14.1-6.5c3.2,0,5.8,1.2,7.7,3.5c1.9,2.4,2.9,5.6,2.9,9.8v42.9h-15.3V87.4c0-1.5-0.3-2.6-0.8-3.3
					c-0.5-0.7-1.4-1-2.5-0.9c-1.7,0.1-3.4,0.7-5.1,2v0.7v42.9H405V87.4c0-1.5-0.3-2.6-0.8-3.3c-0.5-0.7-1.4-1-2.5-1
					c-1.6,0.1-3.3,0.8-5.2,2.1v43.5h-15.2V128.8z"/>
				<path class="st8" d="M471.3,129.8c-6.1,0-10.8-1.6-14.1-4.9c-3.3-3.3-5-7.9-5-13.8V91.2c0-5.9,1.7-10.5,5-13.8s8.1-4.9,14.1-4.9
					c6.1,0,10.7,1.6,13.8,4.7c3.1,3.2,4.6,7.8,4.6,13.9V102h-22.1v9.7c0,2.2,0.3,3.9,0.8,5.1c0.6,1.1,1.5,1.7,2.8,1.7
					c2.6,0,3.9-1.8,3.9-5.4v-3.7h14.5v3.2c0,5.5-1.6,9.7-4.8,12.6C481.7,128.3,477.1,129.8,471.3,129.8z M467.6,94.8h7.6v-5.5
					c0-2.1-0.3-3.5-1-4.4s-1.7-1.3-2.9-1.3c-1.2,0-2.1,0.5-2.7,1.5s-0.9,2.7-0.9,5.1v4.6C467.7,94.8,467.6,94.8,467.6,94.8z"/>
				<path class="st8" d="M514.4,129.8c-4.7,0-8.6-1.1-11.7-3.3s-5.6-5.7-7.5-10.6l10.8-4.7c1.1,2.6,2.3,4.6,3.7,6.1
					c1.3,1.3,2.6,2,4,2c0.2,0,0.3,0,0.5,0c1-0.1,1.8-0.4,2.4-1.1c0.7-0.7,1-1.6,0.9-2.6c0-0.5-0.2-1.1-0.6-1.7c-0.4-0.6-1-1.4-2-2.3
					s-1.7-1.6-2.1-1.9c-0.4-0.3-1.3-1.1-2.7-2.3l-4.3-3.7c-6.3-5.3-9.4-10.5-9.4-15.5c0-3,0.8-5.7,2.4-8.1s3.6-4.2,6.2-5.4
					s5.4-1.9,8.4-1.9c4.5,0,8.3,1.2,11.3,3.7s5.2,6,6.4,10.5L521,91.7c-0.6-2.1-1.5-3.9-2.7-5.5s-2.5-2.4-4-2.5c-0.1,0-0.1,0-0.1,0
					c-1.1,0-2,0.3-2.6,0.9c-0.7,0.6-1,1.4-1.1,2.3c-0.1,1.5,2.1,4.1,6.6,7.9c0.4,0.3,0.7,0.6,0.8,0.7l4.2,3.7
					c1.6,1.4,2.8,2.5,3.6,3.3s1.8,1.9,2.9,3.3c1.2,1.4,2,2.8,2.5,4.3s0.8,3,0.8,4.7c0,3.1-0.8,5.9-2.5,8.2c-1.7,2.3-3.8,4.1-6.5,5.2
					C520.4,129.2,517.5,129.8,514.4,129.8z"/>
				<path class="st8" d="M563.9,128.8V51.4h20.2c2.9,0,5.5,0.1,7.7,0.4s4.5,0.9,6.7,1.8s4.1,2,5.5,3.5c1.4,1.4,2.6,3.4,3.5,5.9
					c0.8,2.3,1.2,5,1.2,8c0,0.2,0,0.4,0,0.7c-0.1,9-3.9,14.2-11.3,15.5c4.4,0.6,7.8,2.5,10.2,5.6s3.5,7.5,3.6,13c0,0.2,0,0.4,0,0.5
					c0,7.6-2,13.2-5.9,16.8c-4,3.7-9.9,5.6-17.5,5.6h-23.9V128.8z M581,82.3h3.3c3.7,0,6.2-0.8,7.5-2.5c1.3-1.6,2-4.3,2-7.8
					c0-6.1-3.3-9.1-10-9.1H581V82.3z M581,116.8h3.6c3.7,0,6.3-0.9,7.8-2.7s2.2-4.7,2.2-8.5c0-4.4-0.8-7.4-2.3-9.2s-4.2-2.7-8-2.7
					H581V116.8z"/>
				<path class="st8" d="M651.6,125.1c-3.4,3.1-8.2,4.7-14.2,4.7s-10.8-1.6-14.1-4.7s-5.1-7.6-5.1-13.5V90.7
					c0-5.9,1.7-10.4,5.1-13.5s8.1-4.6,14.1-4.6s10.8,1.6,14.2,4.7s5.2,7.6,5.2,13.5v20.9C656.8,117.5,655.1,122,651.6,125.1z
					 M637.4,119.3c1.5,0,2.5-0.6,3.1-1.7s0.9-2.8,0.9-5v-23c0-2.2-0.3-3.9-0.9-5c-0.6-1.1-1.6-1.7-3.1-1.7c-1.4,0-2.4,0.6-3,1.7
					s-0.9,2.8-0.9,5v23c0,2.1,0.3,3.8,0.9,4.9C635,118.7,636,119.3,637.4,119.3z"/>
				<path class="st8" d="M697.8,125.1c-3.4,3.1-8.2,4.7-14.2,4.7s-10.8-1.6-14.1-4.7c-3.4-3.1-5.1-7.6-5.1-13.5V90.7
					c0-5.9,1.7-10.4,5.1-13.5c3.4-3.1,8.1-4.6,14.1-4.6s10.8,1.6,14.2,4.7s5.2,7.6,5.2,13.5v20.9C703,117.5,701.2,122,697.8,125.1z
					 M683.6,119.3c1.5,0,2.5-0.6,3.1-1.7s0.9-2.8,0.9-5v-23c0-2.2-0.3-3.9-0.9-5c-0.6-1.1-1.6-1.7-3.1-1.7c-1.4,0-2.4,0.6-3,1.7
					s-0.9,2.8-0.9,5v23c0,2.1,0.3,3.8,0.9,4.9C681.1,118.7,682.2,119.3,683.6,119.3z"/>
				<path class="st8" d="M727.3,129.4c-1.7-0.1-3.3-0.3-4.6-0.7c-1.4-0.4-2.6-1-3.5-1.6c-1-0.7-1.8-1.5-2.5-2.5s-1.3-2-1.7-3.1
					s-0.8-2.3-1-3.7s-0.4-2.7-0.5-4s-0.1-2.7-0.1-4.4V83.7h-5.3V73.5h5.3V56.8h15.7v16.8h7.9v10.2h-7.9v28.6c0,2.9,1.7,4.4,5,4.5
					c0.4,0,0.9,0,1.4,0s0.9-0.1,1.3-0.1c0.3,0,0.7-0.1,1-0.2s0.5-0.1,0.5-0.1v12.3c-3.3,0.6-6.4,0.8-9.2,0.8
					C728.3,129.5,727.8,129.5,727.3,129.4z"/>
				<path class="st8" d="M761.6,129.8c-4.7,0-8.6-1.1-11.7-3.3s-5.6-5.7-7.5-10.6l10.8-4.7c1.1,2.6,2.3,4.6,3.7,6.1
					c1.3,1.3,2.6,2,4,2c0.2,0,0.3,0,0.5,0c1-0.1,1.8-0.4,2.4-1.1s1-1.6,0.9-2.6c0-0.5-0.2-1.1-0.6-1.7c-0.4-0.6-1-1.4-2-2.3
					s-1.7-1.6-2.1-1.9c-0.4-0.3-1.3-1.1-2.7-2.3l-4.3-3.7c-6.3-5.3-9.4-10.5-9.4-15.5c0-3,0.8-5.7,2.4-8.1c1.6-2.4,3.6-4.2,6.2-5.4
					s5.4-1.9,8.4-1.9c4.5,0,8.3,1.2,11.3,3.7s5.2,6,6.4,10.5l-10.1,4.7c-0.6-2.1-1.5-3.9-2.7-5.5s-2.5-2.4-4-2.5c-0.1,0-0.1,0-0.1,0
					c-1.1,0-2,0.3-2.6,0.9c-0.7,0.6-1,1.4-1.1,2.3c-0.1,1.5,2.1,4.1,6.6,7.9c0.4,0.3,0.7,0.6,0.8,0.7l4.2,3.7
					c1.6,1.4,2.8,2.5,3.6,3.3s1.8,1.9,2.9,3.3c1.2,1.4,2,2.8,2.5,4.3s0.8,3,0.8,4.7c0,3.1-0.8,5.9-2.5,8.2c-1.7,2.3-3.8,4.1-6.5,5.2
					C767.6,129.2,764.7,129.8,761.6,129.8z"/>
				<path class="st8" d="M801.4,129.4c-1.7-0.1-3.3-0.3-4.6-0.7c-1.4-0.4-2.6-1-3.5-1.6c-1-0.7-1.8-1.5-2.5-2.5s-1.3-2-1.7-3.1
					s-0.8-2.3-1-3.7s-0.4-2.7-0.5-4s-0.1-2.7-0.1-4.4V83.7h-5.3V73.5h5.3V56.8h15.7v16.8h7.9v10.2h-7.9v28.6c0,2.9,1.7,4.4,5,4.5
					c0.4,0,0.9,0,1.4,0s0.9-0.1,1.3-0.1c0.3,0,0.7-0.1,1-0.2s0.5-0.1,0.5-0.1v12.3c-3.3,0.6-6.4,0.8-9.2,0.8
					C802.5,129.5,802,129.5,801.4,129.4z"/>
				<path class="st8" d="M819.7,128.8V73.5h15.6v9.2c3.4-6.6,7.1-9.9,11.1-9.9c0.6,0,1.3,0.1,2.2,0.4V87c-0.9-0.2-1.7-0.3-2.6-0.3
					c-4.3,0.2-7.8,2.4-10.7,6.7v35.4L819.7,128.8L819.7,128.8z"/>
				<path class="st8" d="M866.1,129.8c-3.9-0.1-7-1.5-9.4-4.2c-2.3-2.7-3.5-5.8-3.5-9.3c0-1.8,0.2-3.5,0.7-5.1s1-2.9,1.6-4.1
					s1.5-2.3,2.7-3.4s2.2-2,3.1-2.6c0.9-0.7,2.2-1.4,3.7-2.1c1.5-0.8,2.8-1.3,3.7-1.7c0.9-0.4,2.2-0.9,3.8-1.5s2.7-1,3.4-1.3V89
					c0-1.6-0.2-2.8-0.7-3.6s-1.3-1.3-2.6-1.3c-2.1,0-3.2,1.5-3.4,4.4l-0.4,4.1L854.4,92c0-0.1,0-0.4,0-0.9s0-0.8,0-0.9
					c0.5-6,2.3-10.5,5.6-13.3c3.3-2.9,8-4.3,14.1-4.3c5.4,0,9.6,1.5,12.4,4.5c2.8,3,4.3,7,4.3,12.1v25.7c0,3.5,0.3,8.2,1,13.9H878
					c-0.8-4.5-1.2-7.1-1.3-7.8c-0.7,2.5-2,4.6-3.8,6.3C871.1,128.9,868.8,129.8,866.1,129.8z M871.7,119c0.7,0,1.5-0.3,2.3-0.8
					s1.4-1.1,1.9-1.8v-15.1c-2.5,1.2-4.5,3-6.1,5.3s-2.4,4.5-2.4,6.6c0,1.8,0.4,3.2,1.2,4.3C869.4,118.5,870.5,119,871.7,119z"/>
				<path class="st8" d="M900.2,147V73.5h15.6v4.1c3.8-3.3,7.6-5,11.5-5c0.2,0,0.4,0,0.5,0c4,0.1,6.9,1.7,8.9,4.8
					c1.9,3,2.9,6.9,2.9,11.6v23.6c0,5.3-1,9.5-3.2,12.6c-2.1,3.1-5.1,4.7-9,4.7s-7.7-1.7-11.7-5.1V147H900.2z M920,119.6
					C920,119.6,920.1,119.6,920,119.6c1.4,0,2.4-0.6,3-1.7c0.6-1.2,0.9-2.7,1-4.5V87.7c0-1.7-0.3-3.1-1-4.2c-0.6-1-1.5-1.5-2.7-1.5
					c-0.1,0-0.3,0-0.4,0c-1.2,0.1-2.5,0.7-4.1,1.8v34.3C917.3,119.1,918.7,119.6,920,119.6z"/>
			</g>
		</g>
		<g class="st2">
			<g>
				<circle class="st9" cx="128.5" cy="90" r="77.5"/>
			</g>
			<rect x="101.2" y="50.9" class="st4" width="56.4" height="78.5"/>
			<g class="st10">
				<path class="st11" d="M106.9,128.3V50.9h20.2c2.9,0,5.5,0.1,7.7,0.4s4.5,0.9,6.7,1.8c2.2,0.9,4.1,2,5.5,3.5
					c1.4,1.4,2.6,3.4,3.5,5.9c0.8,2.3,1.2,5,1.2,8c0,0.2,0,0.4,0,0.7c-0.1,9-3.9,14.2-11.3,15.5c4.4,0.6,7.8,2.5,10.2,5.6
					s3.5,7.5,3.6,13c0,0.2,0,0.4,0,0.5c0,7.6-2,13.2-5.9,16.8c-4,3.7-9.9,5.6-17.5,5.6h-23.9V128.3z M124,81.8h3.3
					c3.7,0,6.2-0.8,7.5-2.5c1.3-1.6,2-4.3,2-7.8c0-6.1-3.3-9.1-10-9.1H124V81.8z M124,116.3h3.6c3.7,0,6.3-0.9,7.8-2.7
					s2.2-4.7,2.2-8.5c0-4.4-0.8-7.4-2.3-9.2s-4.2-2.7-8-2.7H124V116.3z"/>
			</g>
			<rect x="241.2" y="50.9" class="st4" width="705.8" height="78.5"/>
			<g class="st10">
				<path class="st9" d="M254.1,128.3V63.5h-11.9V50.9H283v12.6h-11.8v64.7h-17.1V128.3z"/>
				<path class="st9" d="M288.8,128.3V50.9h15.6V78c3.9-3.9,8.4-5.9,13.5-5.9c3.3,0,5.8,1.2,7.5,3.6s2.6,5.5,2.6,9.2v43.4h-15.6v-41
					c0-1.4-0.2-2.4-0.7-3.1c-0.4-0.7-1.2-1-2.4-1c-1.4,0-3,0.7-4.9,2v43.1L288.8,128.3L288.8,128.3z"/>
				<path class="st9" d="M355.5,129.3c-6.1,0-10.8-1.6-14.1-4.9c-3.3-3.3-5-7.9-5-13.8V90.7c0-5.9,1.7-10.5,5-13.8s8.1-4.9,14.1-4.9
					c6.1,0,10.7,1.6,13.8,4.7c3.1,3.2,4.6,7.8,4.6,13.9v10.9h-22.1v9.7c0,2.2,0.3,3.9,0.8,5.1c0.6,1.1,1.5,1.7,2.8,1.7
					c2.6,0,3.9-1.8,3.9-5.4V109h14.5v3.2c0,5.5-1.6,9.7-4.8,12.6C365.8,127.8,361.3,129.3,355.5,129.3z M351.8,94.3h7.6v-5.5
					c0-2.1-0.3-3.5-1-4.4s-1.7-1.3-2.9-1.3c-1.2,0-2.1,0.5-2.7,1.5s-0.9,2.7-0.9,5.1v4.6C351.9,94.3,351.8,94.3,351.8,94.3z"/>
				<path class="st9" d="M382.3,128.3V73h15.3v4.5c3.7-3.7,8.1-5.5,13.2-5.5c2.2,0,4.1,0.6,5.7,1.7s2.9,2.7,3.7,4.9
					c3.9-4.4,8.6-6.5,14.1-6.5c3.2,0,5.8,1.2,7.7,3.5c1.9,2.4,2.9,5.6,2.9,9.8v42.9h-15.3V86.9c0-1.5-0.3-2.6-0.8-3.3
					c-0.5-0.7-1.4-1-2.5-0.9c-1.7,0.1-3.4,0.7-5.1,2v0.7v42.9H406V86.9c0-1.5-0.3-2.6-0.8-3.3c-0.5-0.7-1.4-1-2.5-1
					c-1.6,0.1-3.3,0.8-5.2,2.1v43.5h-15.2V128.3z"/>
				<path class="st9" d="M472.3,129.3c-6.1,0-10.8-1.6-14.1-4.9c-3.3-3.3-5-7.9-5-13.8V90.7c0-5.9,1.7-10.5,5-13.8s8.1-4.9,14.1-4.9
					c6.1,0,10.7,1.6,13.8,4.7c3.1,3.2,4.6,7.8,4.6,13.9v10.9h-22.1v9.7c0,2.2,0.3,3.9,0.8,5.1c0.6,1.1,1.5,1.7,2.8,1.7
					c2.6,0,3.9-1.8,3.9-5.4V109h14.5v3.2c0,5.5-1.6,9.7-4.8,12.6C482.7,127.8,478.1,129.3,472.3,129.3z M468.6,94.3h7.6v-5.5
					c0-2.1-0.3-3.5-1-4.4s-1.7-1.3-2.9-1.3c-1.2,0-2.1,0.5-2.7,1.5s-0.9,2.7-0.9,5.1v4.6C468.7,94.3,468.6,94.3,468.6,94.3z"/>
				<path class="st9" d="M515.4,129.3c-4.7,0-8.6-1.1-11.7-3.3s-5.6-5.7-7.5-10.6l10.8-4.7c1.1,2.6,2.3,4.6,3.7,6.1
					c1.3,1.3,2.6,2,4,2c0.2,0,0.3,0,0.5,0c1-0.1,1.8-0.4,2.4-1.1c0.7-0.7,1-1.6,0.9-2.6c0-0.5-0.2-1.1-0.6-1.7c-0.4-0.6-1-1.4-2-2.3
					s-1.7-1.6-2.1-1.9c-0.4-0.3-1.3-1.1-2.7-2.3l-4.3-3.7c-6.3-5.3-9.4-10.5-9.4-15.5c0-3,0.8-5.7,2.4-8.1s3.6-4.2,6.2-5.4
					s5.4-1.9,8.4-1.9c4.5,0,8.3,1.2,11.3,3.7s5.2,6,6.4,10.5l-10,4.5c-0.6-2.1-1.5-3.9-2.7-5.5s-2.5-2.4-4-2.5c-0.1,0-0.1,0-0.1,0
					c-1.1,0-2,0.3-2.6,0.9c-0.7,0.6-1,1.4-1.1,2.3c-0.1,1.5,2.1,4.1,6.6,7.9c0.4,0.3,0.7,0.6,0.8,0.7l4.2,3.7
					c1.6,1.4,2.8,2.5,3.6,3.3s1.8,1.9,2.9,3.3c1.2,1.4,2,2.8,2.5,4.3s0.8,3,0.8,4.7c0,3.1-0.8,5.9-2.5,8.2c-1.7,2.3-3.8,4.1-6.5,5.2
					C521.4,128.7,518.5,129.3,515.4,129.3z"/>
				<path class="st9" d="M564.9,128.3V50.9h20.2c2.9,0,5.5,0.1,7.7,0.4s4.5,0.9,6.7,1.8s4.1,2,5.5,3.5c1.4,1.4,2.6,3.4,3.5,5.9
					c0.8,2.3,1.2,5,1.2,8c0,0.2,0,0.4,0,0.7c-0.1,9-3.9,14.2-11.3,15.5c4.4,0.6,7.8,2.5,10.2,5.6s3.5,7.5,3.6,13c0,0.2,0,0.4,0,0.5
					c0,7.6-2,13.2-5.9,16.8c-4,3.7-9.9,5.6-17.5,5.6h-23.9V128.3z M582,81.8h3.3c3.7,0,6.2-0.8,7.5-2.5c1.3-1.6,2-4.3,2-7.8
					c0-6.1-3.3-9.1-10-9.1H582V81.8z M582,116.3h3.6c3.7,0,6.3-0.9,7.8-2.7s2.2-4.7,2.2-8.5c0-4.4-0.8-7.4-2.3-9.2s-4.2-2.7-8-2.7
					H582V116.3z"/>
				<path class="st9" d="M652.6,124.6c-3.4,3.1-8.2,4.7-14.2,4.7s-10.8-1.6-14.1-4.7s-5.1-7.6-5.1-13.5V90.2
					c0-5.9,1.7-10.4,5.1-13.5s8.1-4.6,14.1-4.6s10.8,1.6,14.2,4.7s5.2,7.6,5.2,13.5v20.9C657.8,117,656.1,121.5,652.6,124.6z
					 M638.4,118.8c1.5,0,2.5-0.6,3.1-1.7s0.9-2.8,0.9-5v-23c0-2.2-0.3-3.9-0.9-5c-0.6-1.1-1.6-1.7-3.1-1.7c-1.4,0-2.4,0.6-3,1.7
					s-0.9,2.8-0.9,5v23c0,2.1,0.3,3.8,0.9,4.9C636,118.2,637,118.8,638.4,118.8z"/>
				<path class="st9" d="M698.8,124.6c-3.4,3.1-8.2,4.7-14.2,4.7s-10.8-1.6-14.1-4.7c-3.4-3.1-5.1-7.6-5.1-13.5V90.2
					c0-5.9,1.7-10.4,5.1-13.5c3.4-3.1,8.1-4.6,14.1-4.6s10.8,1.6,14.2,4.7s5.2,7.6,5.2,13.5v20.9C704,117,702.2,121.5,698.8,124.6z
					 M684.6,118.8c1.5,0,2.5-0.6,3.1-1.7s0.9-2.8,0.9-5v-23c0-2.2-0.3-3.9-0.9-5c-0.6-1.1-1.6-1.7-3.1-1.7c-1.4,0-2.4,0.6-3,1.7
					s-0.9,2.8-0.9,5v23c0,2.1,0.3,3.8,0.9,4.9C682.1,118.2,683.2,118.8,684.6,118.8z"/>
				<path class="st9" d="M728.3,128.9c-1.7-0.1-3.3-0.3-4.6-0.7c-1.4-0.4-2.6-1-3.5-1.6c-1-0.7-1.8-1.5-2.5-2.5s-1.3-2-1.7-3.1
					s-0.8-2.3-1-3.7s-0.4-2.7-0.5-4s-0.1-2.7-0.1-4.4V83.2h-5.3V73h5.3V56.3h15.7V73h7.9v10.2h-7.9v28.6c0,2.9,1.7,4.4,5,4.5
					c0.4,0,0.9,0,1.4,0s0.9-0.1,1.3-0.1c0.3,0,0.7-0.1,1-0.2s0.5-0.1,0.5-0.1v12.3c-3.3,0.6-6.4,0.8-9.2,0.8
					C729.3,129,728.8,129,728.3,128.9z"/>
				<path class="st9" d="M762.6,129.3c-4.7,0-8.6-1.1-11.7-3.3s-5.6-5.7-7.5-10.6l10.8-4.7c1.1,2.6,2.3,4.6,3.7,6.1
					c1.3,1.3,2.6,2,4,2c0.2,0,0.3,0,0.5,0c1-0.1,1.8-0.4,2.4-1.1s1-1.6,0.9-2.6c0-0.5-0.2-1.1-0.6-1.7c-0.4-0.6-1-1.4-2-2.3
					s-1.7-1.6-2.1-1.9c-0.4-0.3-1.3-1.1-2.7-2.3L754,103c-6.3-5.3-9.4-10.5-9.4-15.5c0-3,0.8-5.7,2.4-8.1c1.6-2.4,3.6-4.2,6.2-5.4
					s5.4-1.9,8.4-1.9c4.5,0,8.3,1.2,11.3,3.7s5.2,6,6.4,10.5l-10,4.7c-0.6-2.1-1.5-3.9-2.7-5.5s-2.5-2.4-4-2.5c-0.1,0-0.1,0-0.1,0
					c-1.1,0-2,0.3-2.6,0.9c-0.7,0.6-1,1.4-1.1,2.3c-0.1,1.5,2.1,4.1,6.6,7.9c0.4,0.3,0.7,0.6,0.8,0.7l4.2,3.7
					c1.6,1.4,2.8,2.5,3.6,3.3s1.8,1.9,2.9,3.3c1.2,1.4,2,2.8,2.5,4.3s0.8,3,0.8,4.7c0,3.1-0.8,5.9-2.5,8.2c-1.7,2.3-3.8,4.1-6.5,5.2
					C768.6,128.7,765.7,129.3,762.6,129.3z"/>
				<path class="st9" d="M802.4,128.9c-1.7-0.1-3.3-0.3-4.6-0.7c-1.4-0.4-2.6-1-3.5-1.6c-1-0.7-1.8-1.5-2.5-2.5s-1.3-2-1.7-3.1
					s-0.8-2.3-1-3.7s-0.4-2.7-0.5-4s-0.1-2.7-0.1-4.4V83.2h-5.3V73h5.3V56.3h15.7V73h7.9v10.2h-7.9v28.6c0,2.9,1.7,4.4,5,4.5
					c0.4,0,0.9,0,1.4,0s0.9-0.1,1.3-0.1c0.3,0,0.7-0.1,1-0.2s0.5-0.1,0.5-0.1v12.3c-3.3,0.6-6.4,0.8-9.2,0.8
					C803.5,129,803,129,802.4,128.9z"/>
				<path class="st9" d="M820.7,128.3V73h15.6v9.2c3.4-6.6,7.1-9.9,11.1-9.9c0.6,0,1.3,0.1,2.2,0.4v13.8c-0.9-0.2-1.7-0.3-2.6-0.3
					c-4.3,0.2-7.8,2.4-10.7,6.7v35.4L820.7,128.3L820.7,128.3z"/>
				<path class="st9" d="M867.1,129.3c-3.9-0.1-7-1.5-9.4-4.2c-2.3-2.7-3.5-5.8-3.5-9.3c0-1.8,0.2-3.5,0.7-5.1s1-2.9,1.6-4.1
					s1.5-2.3,2.7-3.4s2.2-2,3.1-2.6c0.9-0.7,2.2-1.4,3.7-2.1c1.5-0.8,2.8-1.3,3.7-1.7c0.9-0.4,2.2-0.9,3.8-1.5s2.7-1,3.4-1.3v-5.5
					c0-1.6-0.2-2.8-0.7-3.6s-1.3-1.3-2.6-1.3c-2.1,0-3.2,1.5-3.4,4.4l-0.4,4.1l-14.6-0.6c0-0.1,0-0.4,0-0.9s0-0.8,0-0.9
					c0.5-6,2.3-10.5,5.6-13.3c3.3-2.9,8-4.3,14.1-4.3c5.4,0,9.6,1.5,12.4,4.5c2.8,3,4.3,7,4.3,12.1v25.7c0,3.5,0.3,8.2,1,13.9H879
					c-0.8-4.5-1.2-7.1-1.3-7.8c-0.7,2.5-2,4.6-3.8,6.3C872.1,128.4,869.8,129.3,867.1,129.3z M872.7,118.5c0.7,0,1.5-0.3,2.3-0.8
					s1.4-1.1,1.9-1.8v-15.1c-2.5,1.2-4.5,3-6.1,5.3s-2.4,4.5-2.4,6.6c0,1.8,0.4,3.2,1.2,4.3C870.4,118,871.5,118.5,872.7,118.5z"/>
				<path class="st9" d="M901.2,146.5V73h15.6v4.1c3.8-3.3,7.6-5,11.5-5c0.2,0,0.4,0,0.5,0c4,0.1,6.9,1.7,8.9,4.8
					c1.9,3,2.9,6.9,2.9,11.6V112c0,5.3-1,9.5-3.2,12.6c-2.1,3.1-5.1,4.7-9,4.7s-7.7-1.7-11.7-5.1v22.4h-15.5V146.5z M921,119.1
					C921,119.1,921.1,119.1,921,119.1c1.4,0,2.4-0.6,3-1.7c0.6-1.2,0.9-2.7,1-4.5V87.2c0-1.7-0.3-3.1-1-4.2c-0.6-1-1.5-1.5-2.7-1.5
					c-0.1,0-0.3,0-0.4,0c-1.2,0.1-2.5,0.7-4.1,1.8v34.3C918.3,118.6,919.7,119.1,921,119.1z"/>
			</g>
		</g>
	</g>
	<g id="Capa_3_1_">
		<g class="st2">
			<rect x="356" y="56" class="st4" width="626" height="108"/>
			<path class="st12" d="M363.4,126V58h23.5l12,49.6l12-49.6h23.5v68h-13.8V73.4h-1.5L405.8,123H392l-13.3-49.6h-1.5V126H363.4z"/>
			<path class="st12" d="M450.1,81.6c3.5-4.6,9.4-6.9,17.7-6.9c8.3,0,14.2,2.3,17.7,6.9s5.3,11,5.3,19.2c0,17.5-7.7,26.3-23,26.3
				s-23-8.8-23-26.3C444.8,92.6,446.6,86.2,450.1,81.6z M460.4,112.2c1.4,2.4,3.8,3.6,7.4,3.6c3.5,0,6-1.2,7.4-3.6s2-6.2,2-11.3
				c0-5.1-0.7-8.9-2-11.2c-1.4-2.3-3.8-3.5-7.4-3.5c-3.5,0-6,1.2-7.4,3.5s-2,6.1-2,11.2C458.4,106,459.1,109.8,460.4,112.2z"/>
			<path class="st12" d="M524.8,74.8c7,0,12.1,1.9,15.3,5.8c3.2,3.8,4.9,10.7,4.9,20.6s-1.9,16.7-5.6,20.4
				c-3.7,3.8-10.2,5.7-19.3,5.7c-2.9,0-8.1-0.3-15.7-1l-3.8-0.4V56H514v21.5C518.3,75.7,521.9,74.8,524.8,74.8z M520.1,115.2
				c4.5,0,7.5-1.1,9-3.2c1.5-2.2,2.3-6,2.3-11.7c0-9-2.8-13.5-8.4-13.5c-2.7,0-5.2,0.3-7.6,1l-1.4,0.3v26.7
				C517.1,115.1,519.1,115.2,520.1,115.2z"/>
			<path class="st12" d="M555,69.6V56h13.4v13.6H555z M555,126V76h13.4v50H555z"/>
			<path class="st12" d="M581.4,126V56h13.4v70H581.4z"/>
			<path class="st12" d="M621.2,113.3c1.6,1.4,3.8,2,6.8,2c6.2,0,11.7-0.2,16.6-0.6l2.8-0.3l0.2,9.9c-7.7,1.9-14.6,2.8-20.8,2.8
				c-7.5,0-13-2-16.4-6s-5.1-10.5-5.1-19.5c0-17.9,7.4-26.9,22.1-26.9c14.5,0,21.8,7.5,21.8,22.6l-1,9.3h-29.4
				C618.9,109.8,619.7,112,621.2,113.3z M636,96.5c0-4-0.6-6.8-1.9-8.4c-1.3-1.6-3.5-2.4-6.7-2.4s-5.4,0.8-6.7,2.5
				c-1.3,1.6-2,4.4-2,8.3H636z"/>
			<path class="st12" d="M676.3,126l15.3-68h26.2l15.3,68h-13.8l-2.7-12.3h-23.8l-2.7,12.3H676.3z M702.3,69.4l-6.9,32.3H714
				l-6.9-32.3C707.1,69.4,702.3,69.4,702.3,69.4z"/>
			<path class="st12" d="M741,147V76h13.3v2.7c4.3-2.6,8.1-3.9,11.4-3.9c6.7,0,11.7,2,14.9,6.1c3.2,4,4.8,10.9,4.8,20.5
				c0,9.7-1.8,16.4-5.3,20.1c-3.5,3.8-9.3,5.7-17.4,5.7c-2.2,0-4.6-0.2-7.1-0.6l-1.2-0.2V147H741z M763.1,86.8c-2.5,0-5,0.5-7.5,1.5
				l-1.2,0.5V115c3,0.4,5.4,0.6,7.3,0.6c3.9,0,6.5-1.1,7.9-3.4s2.2-6.1,2.2-11.6C771.8,91.4,768.9,86.8,763.1,86.8z"/>
			<path class="st12" d="M795.4,147V76h13.3v2.7c4.3-2.6,8.1-3.9,11.4-3.9c6.7,0,11.7,2,14.9,6.1c3.2,4,4.8,10.9,4.8,20.5
				c0,9.7-1.8,16.4-5.3,20.1c-3.5,3.8-9.3,5.7-17.4,5.7c-2.2,0-4.6-0.2-7.1-0.6l-1.2-0.2V147H795.4z M817.5,86.8
				c-2.5,0-5,0.5-7.5,1.5l-1.2,0.5V115c3,0.4,5.4,0.6,7.3,0.6c3.9,0,6.5-1.1,7.9-3.4s2.2-6.1,2.2-11.6
				C826.2,91.4,823.3,86.8,817.5,86.8z"/>
		</g>
		<g class="st2">
			<circle class="st12" cx="236.5" cy="90.5" r="77.5"/>
		</g>
		<g class="st2">
			<rect x="193" y="55.4" class="st4" width="89.6" height="108"/>
			<path class="st13" d="M200.4,125.4v-68h23.5l12,49.6l12-49.6h23.5v68h-13.8V72.8h-1.5l-13.3,49.6H229l-13.3-49.6h-1.5v52.6H200.4
				z"/>
		</g>
	</g>
	<g id="Capa_4" class="st2">
		<g>
			<rect x="356" y="56" class="st4" width="626" height="108"/>
			<path class="st13" d="M363.4,126V58h23.5l12,49.6l12-49.6h23.5v68h-13.8V73.4h-1.5L405.8,123H392l-13.3-49.6h-1.5V126H363.4z"/>
			<path class="st13" d="M450.1,81.6c3.5-4.6,9.4-6.9,17.7-6.9c8.3,0,14.2,2.3,17.7,6.9s5.3,11,5.3,19.2c0,17.5-7.7,26.3-23,26.3
				s-23-8.8-23-26.3C444.8,92.6,446.6,86.2,450.1,81.6z M460.4,112.2c1.4,2.4,3.8,3.6,7.4,3.6c3.5,0,6-1.2,7.4-3.6s2-6.2,2-11.3
				c0-5.1-0.7-8.9-2-11.2c-1.4-2.3-3.8-3.5-7.4-3.5c-3.5,0-6,1.2-7.4,3.5s-2,6.1-2,11.2C458.4,106,459.1,109.8,460.4,112.2z"/>
			<path class="st13" d="M524.8,74.8c7,0,12.1,1.9,15.3,5.8c3.2,3.8,4.9,10.7,4.9,20.6s-1.9,16.7-5.6,20.4
				c-3.7,3.8-10.2,5.7-19.3,5.7c-2.9,0-8.1-0.3-15.7-1l-3.8-0.4V56H514v21.5C518.3,75.7,521.9,74.8,524.8,74.8z M520.1,115.2
				c4.5,0,7.5-1.1,9-3.2c1.5-2.2,2.3-6,2.3-11.7c0-9-2.8-13.5-8.4-13.5c-2.7,0-5.2,0.3-7.6,1l-1.4,0.3v26.7
				C517.1,115.1,519.1,115.2,520.1,115.2z"/>
			<path class="st13" d="M555,69.6V56h13.4v13.6H555z M555,126V76h13.4v50H555z"/>
			<path class="st13" d="M581.4,126V56h13.4v70H581.4z"/>
			<path class="st13" d="M621.2,113.3c1.6,1.4,3.8,2,6.8,2c6.2,0,11.7-0.2,16.6-0.6l2.8-0.3l0.2,9.9c-7.7,1.9-14.6,2.8-20.8,2.8
				c-7.5,0-13-2-16.4-6s-5.1-10.5-5.1-19.5c0-17.9,7.4-26.9,22.1-26.9c14.5,0,21.8,7.5,21.8,22.6l-1,9.3h-29.4
				C618.9,109.8,619.7,112,621.2,113.3z M636,96.5c0-4-0.6-6.8-1.9-8.4c-1.3-1.6-3.5-2.4-6.7-2.4s-5.4,0.8-6.7,2.5
				c-1.3,1.6-2,4.4-2,8.3H636z"/>
			<path class="st13" d="M676.3,126l15.3-68h26.2l15.3,68h-13.8l-2.7-12.3h-23.8l-2.7,12.3H676.3z M702.3,69.4l-6.9,32.3H714
				l-6.9-32.3C707.1,69.4,702.3,69.4,702.3,69.4z"/>
			<path class="st13" d="M741,147V76h13.3v2.7c4.3-2.6,8.1-3.9,11.4-3.9c6.7,0,11.7,2,14.9,6.1c3.2,4,4.8,10.9,4.8,20.5
				c0,9.7-1.8,16.4-5.3,20.1c-3.5,3.8-9.3,5.7-17.4,5.7c-2.2,0-4.6-0.2-7.1-0.6l-1.2-0.2V147H741z M763.1,86.8c-2.5,0-5,0.5-7.5,1.5
				l-1.2,0.5V115c3,0.4,5.4,0.6,7.3,0.6c3.9,0,6.5-1.1,7.9-3.4s2.2-6.1,2.2-11.6C771.8,91.4,768.9,86.8,763.1,86.8z"/>
			<path class="st13" d="M795.4,147V76h13.3v2.7c4.3-2.6,8.1-3.9,11.4-3.9c6.7,0,11.7,2,14.9,6.1c3.2,4,4.8,10.9,4.8,20.5
				c0,9.7-1.8,16.4-5.3,20.1c-3.5,3.8-9.3,5.7-17.4,5.7c-2.2,0-4.6-0.2-7.1-0.6l-1.2-0.2V147H795.4z M817.5,86.8
				c-2.5,0-5,0.5-7.5,1.5l-1.2,0.5V115c3,0.4,5.4,0.6,7.3,0.6c3.9,0,6.5-1.1,7.9-3.4s2.2-6.1,2.2-11.6
				C826.2,91.4,823.3,86.8,817.5,86.8z"/>
		</g>
		<g>
			<circle class="st13" cx="236.5" cy="90.5" r="77.5"/>
		</g>
		<g>
			<rect x="193" y="55.4" class="st4" width="89.6" height="108"/>
			<path class="st12" d="M200.4,125.4v-68h23.5l12,49.6l12-49.6h23.5v68h-13.8V72.8h-1.5l-13.3,49.6H229l-13.3-49.6h-1.5v52.6H200.4
				z"/>
		</g>
	</g>
</g>
<g id="Capa_2">
	<g>
		<rect x="195" y="55.2" class="st4" width="799.2" height="98"/>
		<path class="st13" d="M221.9,67.4c-6.9,0-10.4,2.3-10.4,6.8c0,2,0.9,3.6,2.6,4.7c1.7,1.1,5.7,2.6,12,4.7c6.3,2,10.7,4.3,13.3,6.9
			c2.5,2.6,3.8,6.5,3.8,11.8c0,6.8-2.1,11.9-6.2,15.4c-4.1,3.5-9.5,5.2-16.2,5.2c-4.9,0-11-0.8-18.1-2.3l-3.4-0.7l1.3-10.2
			c8.5,1.1,15,1.7,19.5,1.7c6.7,0,10.1-2.8,10.1-8.4c0-2-0.8-3.6-2.3-4.8c-1.6-1.1-4.6-2.4-9.3-3.7c-7.3-2.1-12.5-4.6-15.5-7.5
			c-3-2.9-4.5-6.9-4.5-12c0-6.5,2-11.3,5.9-14.4c3.9-3.2,9.3-4.8,16.2-4.8c4.7,0,10.6,0.6,17.9,1.9l3.4,0.7l-1,10.4
			C231.8,67.9,225.5,67.4,221.9,67.4z"/>
		<path class="st13" d="M255.1,79.6c3.4-4.3,9-6.5,16.8-6.5c7.9,0,13.5,2.2,16.8,6.5c3.4,4.3,5,10.4,5,18.3c0,16.7-7.3,25-21.9,25
			c-14.6,0-21.9-8.3-21.9-25C250.1,90,251.8,83.9,255.1,79.6z M264.9,108.6c1.3,2.3,3.6,3.4,7,3.4c3.4,0,5.7-1.1,7-3.4
			c1.3-2.3,1.9-5.9,1.9-10.7c0-4.9-0.7-8.4-1.9-10.6c-1.3-2.2-3.6-3.3-7-3.3c-3.4,0-5.7,1.1-7,3.3c-1.3,2.2-1.9,5.8-1.9,10.6
			C263,102.8,263.7,106.3,264.9,108.6z"/>
		<path class="st13" d="M318.1,85.1v36.7h-12.7V85.1h-5.1V74.2h5.1v-2.1c0-6.8,1-11.6,3-14.2c2-2.6,5.6-3.9,10.8-3.9
			c2.3,0,5.2,0.3,8.8,1l2,0.3l-0.2,10.4c-2.8-0.1-5.1-0.2-7-0.2s-3.2,0.5-3.8,1.5c-0.6,1-1,2.8-1,5.2v2h11.5v10.8H318.1z"/>
		<path class="st13" d="M363.3,85.1h-11.7v19.5c0,1.9,0,3.2,0.1,4c0.1,0.8,0.4,1.5,1,2c0.6,0.6,1.5,0.9,2.8,0.9l7.2-0.2l0.6,10.2
			c-4.2,1-7.5,1.4-9.7,1.4c-5.7,0-9.6-1.3-11.7-3.8c-2.1-2.6-3.1-7.3-3.1-14.2V85.1h-5.6V74.2h5.6V61h12.7v13.2h11.7V85.1z"/>
		<path class="st13" d="M368,74.2h12.5l5.8,36.7h2.3l7.2-35.7h13.1l7.2,35.7h2.3l5.8-36.7h12.5l-9,47.5h-20l-5.4-29.1l-5.4,29.1H377
			L368,74.2z"/>
		<path class="st13" d="M481.3,89v19.8c0.1,1.5,0.4,2.6,0.8,3.2c0.4,0.6,1.2,1,2.4,1.3l-0.4,9.6c-3.2,0-5.8-0.2-7.7-0.7
			c-1.9-0.4-3.9-1.3-5.8-2.7c-4.6,2.2-9.2,3.3-14,3.3c-9.8,0-14.7-5.2-14.7-15.6c0-5.1,1.4-8.7,4.1-10.8c2.7-2.1,6.9-3.4,12.5-3.8
			l10.2-0.8V89c0-2-0.4-3.3-1.3-4c-0.9-0.7-2.3-1.1-4.3-1.1l-17.9,0.8l-0.4-8.8c6.8-1.8,13.2-2.8,19.3-2.8c6.1,0,10.5,1.3,13.2,3.8
			C480,79.4,481.3,83.5,481.3,89z M459.9,101.6c-3.5,0.3-5.3,2.2-5.3,5.7c0,3.5,1.6,5.2,4.7,5.2c2.4,0,5-0.4,7.9-1.1l1.4-0.4v-10.2
			L459.9,101.6z"/>
		<path class="st13" d="M493.5,121.7V74.2h12.6v5c5.3-3.2,10.4-5.2,15.2-6.2v12.8c-5.1,1.1-9.5,2.2-13.2,3.3l-1.9,0.7v31.8H493.5z"
			/>
		<path class="st13" d="M541.6,109.7c1.5,1.3,3.6,1.9,6.4,1.9c5.9,0,11.1-0.2,15.8-0.6l2.7-0.3l0.2,9.4c-7.3,1.8-13.9,2.7-19.8,2.7
			c-7.2,0-12.4-1.9-15.6-5.7c-3.2-3.8-4.8-10-4.8-18.5c0-17,7-25.6,21-25.6c13.8,0,20.7,7.2,20.7,21.5l-1,8.8h-27.9
			C539.3,106.3,540.1,108.4,541.6,109.7z M555.6,93.7c0-3.8-0.6-6.4-1.8-7.9c-1.2-1.5-3.3-2.2-6.3-2.2c-3,0-5.1,0.8-6.4,2.3
			c-1.2,1.6-1.9,4.2-1.9,7.8H555.6z"/>
		<path class="st13" d="M640.2,120.7c-6.7,1.5-12.8,2.2-18.1,2.2c-5.4,0-9.7-0.7-12.9-2c-3.2-1.3-5.8-3.5-7.6-6.4s-3.1-6.3-3.8-10.3
			c-0.7-3.9-1-8.9-1-14.8c0-12.5,1.8-21.2,5.3-26.1c3.5-4.9,10-7.4,19.4-7.4c5.4,0,11.7,0.9,18.9,2.6L640,69
			c-6.3-0.9-11.5-1.4-15.6-1.4c-4.1,0-7.1,0.6-8.9,1.7c-1.8,1.1-3.1,3.2-3.9,6.3c-0.9,3.1-1.3,8.4-1.3,15.9c0,7.5,0.9,12.7,2.6,15.5
			c1.7,2.9,5.2,4.3,10.5,4.3s10.8-0.4,16.7-1.3L640.2,120.7z"/>
		<path class="st13" d="M651.5,79.6c3.4-4.3,9-6.5,16.8-6.5c7.9,0,13.5,2.2,16.8,6.5c3.4,4.3,5,10.4,5,18.3c0,16.7-7.3,25-21.9,25
			c-14.6,0-21.8-8.3-21.8-25C646.5,90,648.2,83.9,651.5,79.6z M661.4,108.6c1.3,2.3,3.6,3.4,7,3.4c3.4,0,5.7-1.1,7-3.4
			c1.3-2.3,1.9-5.9,1.9-10.7c0-4.9-0.7-8.4-1.9-10.6c-1.3-2.2-3.6-3.3-7-3.3c-3.4,0-5.7,1.1-7,3.3c-1.3,2.2-1.9,5.8-1.9,10.6
			C659.4,102.8,660.1,106.3,661.4,108.6z"/>
		<path class="st13" d="M712.3,121.7h-12.7V74.2h12.6v2.7c4.4-2.5,8.1-3.8,11.2-3.8c5.1,0,9.1,1.5,11.9,4.5c5.8-3,11.1-4.5,16-4.5
			c6.3,0,10.6,1.8,13.1,5.5c2.4,3.6,3.7,9.5,3.7,17.4v25.7h-12.7V96.4c0-4.1-0.4-7-1.3-9c-0.9-1.9-2.7-2.9-5.3-2.9
			c-2,0-4.5,0.4-7.4,1.3l-1.4,0.5c0.3,4.7,0.4,8.4,0.4,10.8v24.6h-12.7V97.3c0-4.7-0.4-8-1.2-9.9c-0.8-1.9-2.6-2.9-5.4-2.9
			c-2.5,0-4.9,0.4-7.3,1.3l-1.1,0.4V121.7z"/>
		<path class="st13" d="M779.2,141.7V74.2h12.6v2.6c4.1-2.5,7.7-3.7,10.8-3.7c6.4,0,11.1,1.9,14.2,5.7c3,3.8,4.6,10.3,4.6,19.5
			c0,9.2-1.7,15.6-5,19.1c-3.4,3.6-8.9,5.4-16.5,5.4c-2.1,0-4.3-0.2-6.7-0.6l-1.1-0.2v19.6H779.2z M800.2,84.5
			c-2.3,0-4.7,0.5-7.1,1.4l-1.1,0.5v24.9c2.8,0.4,5.2,0.6,6.9,0.6c3.7,0,6.2-1.1,7.6-3.2c1.4-2.2,2-5.8,2-11
			C808.5,88.9,805.7,84.5,800.2,84.5z"/>
		<path class="st13" d="M867.3,89v19.8c0.1,1.5,0.4,2.6,0.8,3.2c0.4,0.6,1.2,1,2.4,1.3l-0.4,9.6c-3.2,0-5.8-0.2-7.7-0.7
			c-1.9-0.4-3.9-1.3-5.8-2.7c-4.6,2.2-9.2,3.3-14,3.3c-9.8,0-14.7-5.2-14.7-15.6c0-5.1,1.4-8.7,4.1-10.8c2.7-2.1,6.9-3.4,12.5-3.8
			l10.2-0.8V89c0-2-0.4-3.3-1.3-4c-0.9-0.7-2.3-1.1-4.3-1.1l-17.9,0.8l-0.4-8.8c6.8-1.8,13.2-2.8,19.3-2.8c6.1,0,10.5,1.3,13.2,3.8
			C865.9,79.4,867.3,83.5,867.3,89z M845.9,101.6c-3.5,0.3-5.3,2.2-5.3,5.7c0,3.5,1.6,5.2,4.7,5.2c2.4,0,5-0.4,7.9-1.1l1.4-0.4
			v-10.2L845.9,101.6z"/>
		<path class="st13" d="M892.2,121.7h-12.7V74.2h12.6v2.7c4.3-2.5,8.3-3.8,11.9-3.8c6.3,0,10.7,1.9,13.1,5.6
			c2.4,3.7,3.6,9.5,3.6,17.3v25.7h-12.7V96.4c0-4.1-0.5-7-1.4-9c-1-1.9-2.8-2.9-5.7-2.9c-2.6,0-5.1,0.4-7.5,1.3l-1.1,0.4V121.7z"/>
		<path class="st13" d="M927.1,74.2h12.5l8.6,36.7h2.2l8.6-36.7h12.5L955,141.7h-12.4l5.2-20h-8.9L927.1,74.2z"/>
	</g>
	<g>
		<circle class="st13" cx="92.5" cy="90.5" r="77.5"/>
	</g>
	<g>
		<rect x="68.6" y="55.2" class="st4" width="57.8" height="98"/>
		<path class="st9" d="M95.5,67.4c-6.9,0-10.4,2.3-10.4,6.8c0,2,0.9,3.6,2.6,4.7c1.7,1.1,5.7,2.6,12,4.7c6.3,2,10.7,4.3,13.3,6.9
			c2.5,2.6,3.8,6.5,3.8,11.8c0,6.8-2.1,11.9-6.2,15.4c-4.1,3.5-9.5,5.2-16.2,5.2c-4.9,0-11-0.8-18.1-2.3l-3.4-0.7l1.3-10.2
			c8.5,1.1,15,1.7,19.5,1.7c6.7,0,10.1-2.8,10.1-8.4c0-2-0.8-3.6-2.3-4.8c-1.6-1.1-4.6-2.4-9.3-3.7c-7.3-2.1-12.5-4.6-15.5-7.5
			c-3-2.9-4.5-6.9-4.5-12c0-6.5,2-11.3,5.9-14.4C82,57.6,87.4,56,94.2,56c4.7,0,10.6,0.6,17.9,1.9l3.4,0.7l-1,10.4
			C105.5,67.9,99.2,67.4,95.5,67.4z"/>
	</g>
</g>
</svg>
