<svg
  class="icon" style="" viewBox="0 0 1024 1024" version="1.1" width="36"
  height="36" id="svg8">
  <path
      style=""
      d="M 744.60599,0.00486267 A 41.779915,41.779915 0 0 0 710.4184,18.673394 L 548.5048,255.32642 h -11.70046 a 41.779915,41.779915 0 0 0 -10.80295,-7.84928 L 235.66,97.084498 a 41.779915,41.779915 0 0 0 -20.07193,-4.960864 41.779915,41.779915 0 0 0 -18.3748,79.145436 L 359.4859,255.32642 H 128.16909 c -49.458302,0 -89.27932,39.82105 -89.27932,89.27932 v 508.65224 c 0,49.4583 39.821018,89.27934 89.27932,89.27934 h 19.48445 C 149.12802,984.5043 179.92773,1024 224.79179,1024 c 44.86407,0 75.66379,-39.4957 77.13826,-81.46268 H 719.98116 C 721.45559,984.5043 752.25533,1024 797.1194,1024 c 44.86406,0 75.6638,-39.4957 77.13824,-81.46268 h 21.57323 c 49.45831,0 89.27936,-39.82104 89.27936,-89.27934 V 344.60574 c 0,-49.45827 -39.82105,-89.27932 -89.27936,-89.27932 H 649.74567 L 779.38103,65.866924 A 41.779915,41.779915 0 0 0 744.60599,0.00486267 Z M 644.49108,418.70871 c 6.29985,0.21538 12.44451,2.01107 17.86888,5.22196 l 171.36218,98.10771 c 18.23417,10.21935 24.63334,33.34627 14.24614,51.48533 -10.38726,18.13909 -33.57344,24.32718 -51.61587,13.77296 L 624.9903,489.18895 c -15.21356,-8.41858 -22.66871,-26.1765 -18.03211,-42.93436 4.63664,-16.75784 20.15573,-28.14465 37.53289,-27.54588 z M 350.2006,432.31846 c 16.89952,0.0317 31.69582,11.33328 36.17844,27.62747 4.48262,16.2942 -2.44981,33.57765 -16.95507,42.24898 l -140.7157,86.91312 c -17.68528,11.18244 -41.09629,5.77692 -52.08912,-12.02686 -10.99282,-17.80373 -5.33855,-41.15658 12.58167,-51.95857 L 329.9002,438.2095 c 6.0643,-3.86439 13.10951,-5.90891 20.3004,-5.89104 z M 501.605,641.53985 c 3.75002,-0.15248 7.48645,0.53903 10.93349,2.0235 0.15842,0.0637 0.31618,0.12888 0.47325,0.19582 0.59328,0.27092 1.17574,0.56489 1.74609,0.88121 0.15868,0.0854 0.31643,0.17233 0.47325,0.2611 0.55694,0.32165 1.10131,0.66458 1.63185,1.02807 0.16455,0.1123 0.32777,0.2265 0.48956,0.34269 0.50382,0.36781 0.99371,0.75428 1.46868,1.15864 0.18724,0.15504 0.37218,0.31282 0.55484,0.47323 0.43271,0.38784 0.8518,0.79061 1.25653,1.20756 0.15449,0.16114 0.30679,0.32437 0.45693,0.48959 0.40798,0.44266 0.79989,0.89988 1.17494,1.37076 0.17799,0.22544 0.35205,0.45395 0.5222,0.68538 0.25932,0.34701 0.50964,0.70071 0.75064,1.06071 0.26712,0.39516 0.52286,0.79784 0.76699,1.20757 0.16907,0.29043 0.33231,0.58424 0.48957,0.88123 0.21836,0.41297 0.42513,0.83199 0.62009,1.25653 0.14836,0.32333 0.28983,0.64976 0.42429,0.97911 0.21319,0.51552 0.40915,1.03801 0.58747,1.5666 0.0677,0.19499 0.13296,0.39085 0.19582,0.58748 0.18652,0.60823 0.34984,1.22334 0.48957,1.84399 0.0397,0.16277 0.0779,0.32601 0.11423,0.48957 0.1436,0.69112 0.25788,1.38801 0.34269,2.08877 0.005,0.0381 0.0111,0.0761 0.0163,0.11424 0.0857,0.78056 0.13474,1.56471 0.14687,2.34988 0.005,0.0543 0.0111,0.10879 0.0163,0.1632 0,0 -0.008,1.12132 0,1.45234 0,0 -0.14697,17.84761 5.89102,34.12231 3.01902,8.13734 7.33278,15.10615 12.61433,19.61501 5.28157,4.50889 11.42894,7.62081 23.64572,7.62081 12.2168,0 18.36416,-3.11192 23.64573,-7.62081 5.28154,-4.50886 9.5953,-11.47767 12.6143,-19.61501 6.03799,-16.2747 5.89103,-34.12231 5.89103,-34.12231 -0.44885,-13.87045 10.45922,-25.46302 24.3311,-25.86506 13.87189,-0.40201 25.42828,10.53953 25.78348,24.41272 0,0 1.11929,25.7226 -9.00791,53.01927 -5.06359,13.64832 -13.1986,28.46036 -27.05631,40.29073 -13.85772,11.83039 -33.5454,19.63135 -56.20142,19.63135 -22.65603,0 -42.34371,-7.80096 -56.20141,-19.63135 -4.1801,-3.56856 -7.78733,-7.42433 -10.99878,-11.42303 -3.21235,4.00037 -6.81703,7.85309 -10.99876,11.42303 -13.85773,11.83039 -33.5454,19.63135 -56.20144,19.63135 -22.65601,0 -42.3437,-7.80096 -56.2014,-19.63135 -13.85775,-11.83037 -21.99272,-26.64241 -27.05632,-40.29073 -10.12725,-27.29667 -9.00789,-53.01928 -9.00789,-53.01927 0.20714,-13.83687 11.58744,-24.88848 25.42444,-24.69013 14.1263,0.19991 25.2971,12.0278 24.69011,26.14247 0,0 -0.14697,17.84761 5.89103,34.12231 3.01902,8.13734 7.31646,15.10615 12.598,19.61501 5.28155,4.50889 11.44526,7.62081 23.66203,7.62081 12.21681,0 18.36418,-3.11192 23.64573,-7.62081 5.28154,-4.50886 9.57899,-11.47767 12.598,-19.61501 5.76352,-15.53489 5.89112,-32.05691 5.89103,-33.56746 0.006,-0.37466 0.0111,-1.05336 0.0163,-1.20759 -0.0117,-0.74583 0.0105,-1.49177 0.0652,-2.23565 0.009,-0.15784 0.0204,-0.31561 0.0327,-0.47324 0.14204,-1.56859 0.43163,-3.12027 0.86487,-4.63449 0.0213,-0.0763 0.0433,-0.15244 0.0652,-0.22848 3.0335,-10.25748 12.24157,-17.46007 22.92769,-17.93417 z"
      id="rect824"/>
</svg>
