<svg width="36" height="36" class="icon" style="" version="1.1" viewBox="0 0 1024 1024">
<path d="M 192 334.2 C 227.3 334.2 256 369.2 256 412.4 v 547.5 C 256 1003.2 227.3 1038.2 192 1038.2 H 64 C 28.7 1038.2 0 1003.2 0 960 V 412.4 C 0 369.2 28.7 334.2 64 334.2 h 128 z m 384 -234.7 C 611.3 99.6 640 134.5 640 177.8 v 782.2 C 640 1003.2 611.3 1038.2 576 1038.2 H 448 C 412.7 1038.2 384 1003.2 384 960 V 177.8 C 384 134.5 412.7 99.6 448 99.6 h 128 z m 384 391.1 C 995.3 490.6 1024 525.7 1024 568.9 v 391.1 C 1024 1003.2 995.3 1038.2 960 1038.2 h -128 C 796.7 1038.2 768 1003.2 768 960 V 568.9 C 768 525.7 796.7 490.6 832 490.6 h 128 z" />
</svg>
