<svg class="icon" style="" viewBox="0 0 1024 1024" version="1.1"
  width="36" height="36">
  <path
      d="m 313.5359,557.51414 c 9.229,0 16.57801,8.88719 16.57801,19.99616 0,11.10899 -7.34901,19.99617 -16.57801,19.99617 -9.229,0 -16.57801,-8.88718 -16.57801,-19.99617 0,-11.10897 7.34901,-19.99616 16.57801,-19.99616 z m 393.7706,0 c 9.22899,0 16.57802,8.88719 16.57802,19.99616 0,11.10899 -7.34903,19.99617 -16.57802,19.99617 -9.229,0 -16.57802,-8.88718 -16.57802,-19.99617 0,-11.10897 7.34902,-19.99616 16.57802,-19.99616 z"
      id="path6"/>
  <path
      d="m 945.8932,448.98796 c -27.17427,0 -51.1013,17.26164 -64.43208,43.23957 C 836.17066,393.44306 741.8298,302.00762 625.27096,264.23708 562.37704,239.1137 518.28294,190.57601 512.8139,134.17657 507.34486,190.74691 463.25077,239.1137 400.35685,264.23708 283.79802,301.83671 189.45714,393.44306 144.16669,492.22753 130.83591,466.2496 107.07979,448.98796 79.734607,448.98796 c -41.701401,0 -75.541066,40.84686 -75.541066,91.26454 0,50.41768 33.839665,91.26454 75.541066,91.26454 12.64715,0 24.610663,-3.75996 35.206923,-10.42536 3.58906,163.55837 180.30728,269.69186 397.87237,270.03367 217.5651,-0.34181 394.28332,-106.4753 397.87238,-270.03367 10.42535,6.6654 22.55977,10.42536 35.20692,10.42536 41.7014,0 75.541,-40.84686 75.541,-91.26454 0.171,-50.41768 -33.6687,-91.26454 -75.541,-91.26454 z M 114.2579,568.79403 c -3.58906,13.15987 -19.312535,18.79981 -35.206921,12.47625 -15.894385,-6.15267 -25.977916,-21.87616 -22.388867,-35.03602 3.58906,-13.15987 19.312533,-18.79981 35.206919,-12.47624 15.894389,6.15267 25.807019,21.87614 22.388869,35.03601 z m 398.556,276.69904 C 338.31748,845.15126 196.97707,762.603 196.97707,644.33509 c 0,-2.56361 0.1709,-4.95631 0.1709,-7.34902 0,-0.85453 0,-1.53817 0.17092,-2.3927 0.1709,-1.70908 0.34181,-3.41814 0.34181,-4.95631 0.1709,-2.22179 0.51273,-4.44359 0.85454,-6.6654 0,-0.1709 0,-0.51271 0.1709,-0.68362 3.58906,-23.2434 12.47624,-58.79214 26.14883,-79.13012 32.64331,-47.51224 90.92273,-78.9592 157.23479,-78.9592 51.1013,0 97.41721,18.79981 130.91506,49.05041 33.49784,-30.2506 79.64283,-49.05041 130.91504,-49.05041 66.48298,0 124.59148,31.61786 157.23479,78.9592 13.67259,20.50889 22.55977,55.88672 26.14883,79.13012 0,0.17091 0,0.51272 0.17091,0.68362 0.34182,2.22181 0.51272,4.44361 0.85453,6.6654 0.17091,1.70907 0.34181,3.24723 0.34181,4.95631 0,0.85453 0.17092,1.53817 0.17092,2.3927 0.17091,2.39271 0.17091,4.95631 0.17091,7.34902 C 828.82165,762.603 687.48124,845.15126 512.8139,845.49307 Z M 946.74774,581.27028 c -15.89439,6.15265 -31.61787,0.68362 -35.20692,-12.47625 -3.58906,-13.15987 6.49448,-28.88334 22.38887,-35.03601 15.89438,-6.15267 31.61786,-0.68363 35.20692,12.47624 3.41815,12.98896 -6.49448,28.71243 -22.38887,35.03602 z"
      id="path8"/>
</svg>
