<svg class="icon" viewBox="0 0 1451 1024" version="1.1"
  xmlns="http://www.w3.org/2000/svg" xmlns:xlink="http://www.w3.org/1999/xlink"
  width="36" height="36">
  <path d="M664.781909 681.472759 0 97.881301C0 3.997201 71.046997 0 71.046997 0L474.477909 0 961.649408 0 1361.641813 0C1361.641813 0 1432.688811 3.997201 1432.688811 97.881301L771.345323 681.472759C771.345323 681.472759 764.482731 685.154773 753.594283 688.65053L753.594283 688.664858C741.602731 693.493018 729.424896 695.068979 718.077952 694.839748 706.731093 695.068979 694.553173 693.493018 682.561621 688.664858L682.561621 688.65053C671.644501 685.140446 664.781909 681.472759 664.781909 681.472759L664.781909 681.472759ZM718.063616 811.603883C693.779541 811.016482 658.879232 802.205449 619.10784 767.734955 542.989056 701.759633 0 212.052267 0 212.052267L0 942.809523C0 942.809523 0 1024 83.726336 1024L682.532949 1024 753.579947 1024 1348.948139 1024C1432.688811 1024 1432.688811 942.809523 1432.688811 942.809523L1432.688811 212.052267C1432.688811 212.052267 893.138176 701.759633 817.019477 767.734955 777.248 802.205449 742.347691 811.03081 718.063616 811.603883L718.063616 811.603883Z"></path>
</svg>
