<svg class="icon" style="" viewBox="0 0 1024 1024" version="1.1"
  xmlns="http://www.w3.org/2000/svg" xmlns:xlink="http://www.w3.org/1999/xlink"
  width="33" height="33">
  <path d="M965.7344 2.7648c14.848 0 28.2624 5.5296 40.2432 16.6912C1017.9584 30.5152 1024 43.52 1024 58.2656l0 910.2336c0 14.848-6.0416 27.7504-18.0224 38.8096C993.8944 1018.4704 980.48 1024 965.7344 1024L704.9216 1024 704.9216 629.9648l133.2224 0 19.456-155.4432-152.576 0L705.024 373.0432c0-50.688 25.9072-76.0832 77.7216-76.0832l80.4864 0L863.232 163.5328c-27.7504-5.4272-67.4816-8.192-119.296-8.192-59.1872 0-106.8032 18.0224-142.9504 54.0672C564.736 245.5552 546.7136 296.0384 546.7136 360.7552l0 113.7664L413.4912 474.5216l0 155.4432 133.2224 0L546.7136 1024 55.5008 1024c-14.848 0-27.7504-5.5296-38.8096-16.6912C5.5296 996.2496 0 983.3472 0 968.4992L0 58.2656C0 43.52 5.5296 30.5152 16.6912 19.456c11.0592-11.0592 24.064-16.6912 38.8096-16.6912L965.7344 2.7648z"></path>
</svg>
