<svg class="icon" style="" viewBox="0 0 1024 1024" version="1.1"
  xmlns="http://www.w3.org/2000/svg" xmlns:xlink="http://www.w3.org/1999/xlink"
  width="36" height="36">
  <path d="M59.544137 403.419429L512.115566 983.405714 16.09728 623.396571a39.936 39.936 0 0 1-14.299429-43.995428l57.709715-176.018286z m264.009143 0h377.161143L512.152137 983.405714zM210.40128 53.723429l113.152 349.696H59.544137l113.152-349.696a20.041143 20.041143 0 0 1 37.705143 0z m754.285714 349.696l57.709715 176.018285a39.862857 39.862857 0 0 1-14.299429 43.995429l-496.018286 360.009143 452.571429-579.986286z m0 0h-264.009143l113.152-349.696a20.041143 20.041143 0 0 1 37.705143 0z"></path>
</svg>
