<svg height="16" width="16" version="1.1" viewBox="0 0 128 128">
  <path d="m 64.719501,1.4279814 c -34.694029,0 -62.8192028,28.1251726 -62.8192028,62.8192016 0,34.694036 28.1251738,62.819207 62.8192028,62.819207 4.245691,0 8.392744,-0.42239 12.402214,-1.2253 -1.616124,-0.77296 -1.792473,-6.57213 -0.194346,-9.87848 1.779059,-3.68082 7.361625,-13.00555 1.840404,-16.134231 -5.521221,-3.12869 -3.98755,-4.53968 -7.361625,-8.15914 -3.374083,-3.61947 -1.994181,-4.16357 -2.208492,-5.09179 -0.736158,-3.19004 3.251385,-7.975096 3.435429,-8.465866 0.184043,-0.490781 0.184043,-2.331182 0.122689,-2.883308 -0.06131,-0.552125 -2.515051,-2.024446 -3.12852,-2.085791 -0.613469,-0.06133 -0.920209,0.98154 -1.77906,1.042896 -0.858856,0.06133 -4.601018,-2.269838 -5.39853,-2.883308 -0.797504,-0.61346 -1.165591,-2.085792 -2.269828,-3.190033 -1.104247,-1.104252 -1.226945,-0.24539 -2.944651,-0.920206 -1.717714,-0.674812 -7.238935,-2.69926 -11.471867,-4.416975 -4.23294,-1.717714 -4.601019,-4.125615 -4.662365,-5.827954 -0.06131,-1.702333 -2.57657,-4.171587 -3.756227,-5.950646 -1.179335,-1.77906 -1.396914,-4.232932 -1.826339,-3.680809 -0.429425,0.552114 2.208484,6.993538 1.77906,7.177582 -0.429425,0.184043 -1.349635,-1.77906 -2.576572,-3.374083 -1.226936,-1.595016 1.28829,-0.736159 -2.637915,-8.465864 -3.926198,-7.729705 1.226944,-11.671284 1.472324,-15.704806 0.24539,-4.033514 3.312738,1.472325 1.717715,-1.104238 -1.595016,-2.576571 0.122697,-7.975094 -1.104246,-9.938197 -1.226936,-1.963102 -8.220475,2.208492 -8.220475,2.208492 0.184036,-1.901758 6.134682,-5.153142 10.428966,-8.1591366 4.294277,-3.005996 6.91682,-0.674813 10.367621,0.4294236 3.450803,1.104246 3.680817,0.736167 2.515226,-0.368079 -1.165591,-1.1042446 0.49077,-1.6563686 3.190031,-1.2269356 2.699269,0.429425 3.435428,3.6808086 7.545669,3.3740746 4.110242,-0.306735 0.429425,0.797511 0.981548,1.840412 0.552123,1.042892 -0.613468,0.920202 -3.312729,2.760607 -2.699262,1.840403 0.06131,1.840403 4.846407,5.337177 4.785055,3.496773 3.312729,-2.331183 2.821952,-4.907753 -0.490777,-2.576563 3.496773,-0.552115 3.496773,-0.552115 2.944651,1.963094 2.400546,0.107972 4.547684,0.782784 2.147139,0.674814 7.967076,5.597286 7.967076,5.597286 -7.300273,3.98755 -2.699261,4.416975 -1.472325,5.337178 1.226937,0.920202 -2.515218,2.699261 -2.515218,2.699261 -1.53367,-1.53367 -1.779059,0.06131 -2.760614,0.613476 -0.981548,0.552115 -0.06131,1.963095 -0.06131,1.963095 -5.076415,0.797512 -3.926198,6.13469 -3.864852,7.422971 0.06131,1.288289 -3.251385,3.251384 -4.110242,5.091796 -0.858857,1.840405 2.208491,5.827948 0.613468,6.073336 -1.595016,0.24539 -3.190031,-6.011991 -11.778601,-3.680808 -2.589322,0.702954 -8.343174,3.680808 -5.275824,9.754153 3.06734,6.073336 8.15913,-1.717714 9.876843,-0.858857 1.717714,0.858857 -0.490778,4.72371 -0.122691,4.785055 0.368079,0.06131 4.8464,0.168662 5.09179,5.398522 0.245388,5.229868 6.809502,4.785065 8.220482,4.907755 1.410972,0.12269 6.134682,-3.864859 6.809502,-4.048894 0.674815,-0.184034 3.374076,-2.453876 9.263377,0.920195 5.889301,3.374089 8.895296,2.883308 10.919743,4.294285 2.02445,1.410987 0.61347,4.232939 2.51523,5.153134 1.90175,0.920217 9.50876,-0.306736 11.41051,2.821966 1.90176,3.1287 -7.8524,18.833491 -10.91974,20.551201 -3.06734,1.71772 -4.478321,5.64392 -7.545665,8.15913 -3.067349,2.51523 -7.361625,5.62854 -11.410522,8.03646 -3.583968,2.1311 -4.228845,5.949 -5.825333,7.15419 28.11404,-6.24545 49.13623,-31.328971 49.13623,-61.323497 0,-34.694029 -28.125171,-62.8192016 -62.819206,-62.8192016 z M 79.442753,60.382331 c -0.858857,0.245389 -2.637917,1.840405 -6.993547,-0.736166 -4.35563,-2.576564 -7.361625,-2.085794 -7.729705,-2.515218 0,0 -0.368079,-1.0429 1.533671,-1.226937 3.905098,-0.378065 8.833951,3.619464 9.938196,3.680809 1.104246,0.06131 1.656361,-1.104245 3.619464,-0.471631 1.963103,0.631953 0.490777,1.023755 -0.368079,1.269143 z M 58.891546,7.6853614 c -0.427786,-0.311152 0.354344,-0.669418 0.82058,-1.288281 0.269103,-0.357613 0.0695,-0.951289 0.406356,-1.28829 0.92021,-0.920203 5.459876,-2.208485 4.572225,0.306734 -0.887321,2.515226 -5.12434,2.760614 -5.799161,2.269837 z m 10.98109,7.9750936 c -1.533672,-0.06131 -5.14381,-0.442837 -4.478321,-1.104246 2.591952,-2.576563 -0.981548,-3.312729 -3.190039,-3.496766 -2.208485,-0.184043 -3.128687,-1.4109786 -2.02444,-1.5336776 1.104237,-0.12269 5.521213,0.06139 6.257379,0.6748206 0.736158,0.613469 4.723709,2.208485 4.969099,3.374076 0.24538,1.16559 0,2.147138 -1.533678,2.085793 z M 83.184914,15.23103 c -1.226943,0.981547 -7.400887,-3.521968 -8.588569,-4.539674 -5.153134,-4.4169746 -7.913742,-2.9446486 -8.995903,-3.6808086 -1.082485,-0.736166 -0.696897,-1.717713 0.959464,-3.190039 1.656369,-1.472325 6.318732,0.490778 9.017994,0.797512 2.699262,0.306734 5.827955,2.392527 5.889301,4.871925 0.06131,2.4792256 2.944649,4.7595296 1.717713,5.7410846 z" />
</svg>
