<svg viewBox="0 0 128 128" version="1.1"
  width="32" height="32">
  <path d="M 85.685714,45.48571 C 87.142857,56.14286 84.342857,68.05714 75.428571,74.25714 69.057143,78.68571 60.342857,78.28571 55.2,75.88571 44.6,70.94286 41.057143,59.14286 41.828571,48.11429 c 1.228572,-17.4 11.685715,-25.11429 21.514286,-25 13.4,-0.0571 20.514286,9.08571 22.342857,22.37142 z M 128,16 v 96 c 0,8.82857 -7.17143,16 -16,16 H 16 C 7.1714286,128 0,120.82857 0,112 V 16 C 0,7.17143 7.1714286,0 16,0 h 96 c 8.82857,0 16,7.17143 16,16 z M 94.285714,80.34286 c 0,0 -0.02857,-9.71429 -0.02857,-62.08572 H 85.97143 V 29.77143 C 85.742858,29.85713 85.628572,29.62857 85.514287,29.42857 82.771429,23.51429 75.257143,16.2 63.8,16.28571 48.971429,16.4 38.885714,25.2 35.057143,38.51429 33.828571,42.77143 33.4,47.11429 33.485714,51.54286 33.971429,73.8 46.371429,85.2 65.6,84.45714 73.857143,84.14286 81.171429,79.6 85.314286,71.54286 85.457143,71.25714 85.628571,71 85.8,70.71429 c 0.05714,0.0286 0.114286,0.0286 0.171429,0.0571 0.08571,1.08571 0.05714,8.77143 0.02857,9.85714 -0.05714,4.22857 -0.571429,8.42857 -2.057143,12.42857 -2.228571,6 -6.371428,9.91429 -12.714286,11.28572 -5.085714,1.11428 -10.171428,1.08571 -15.2,-0.34286 C 49.885714,102.25714 45.6,98.57143 44.285714,92.05714 44.2,91.6 43.914286,91.68571 43.628571,91.68571 H 35.971429 C 36.2,94.71429 36.885714,97.48571 38.4,100.02857 45.314286,111.6 62.028571,113.88571 75.028571,110.71429 89.285714,107.2 94.257143,95.02857 94.285714,80.34286 Z" />
</svg>
