<svg class="icon" viewBox="0 0 1024 1024" version="1.1"
  xmlns="http://www.w3.org/2000/svg" xmlns:xlink="http://www.w3.org/1999/xlink"
  width="36" height="36">
  <path d="M853.333333 85.333333C900.266667 85.333333 938.666667 123.733333 938.666667 170.666667L938.666667 853.333333C938.666667 900.266667 900.266667 938.666667 853.333333 938.666667L170.666667 938.666667C123.733333 938.666667 85.333333 900.266667 85.333333 853.333333L85.333333 170.666667C85.333333 123.306667 123.733333 85.333333 170.666667 85.333333L853.333333 85.333333M853.333333 512 768 512 768 426.666667 725.333333 426.666667 725.333333 512 640 512 640 554.666667 725.333333 554.666667 725.333333 640 768 640 768 554.666667 853.333333 554.666667 853.333333 512M384 481.706667 384 554.666667 506.026667 554.666667C499.626667 584.96 469.333333 645.973333 384 645.973333 311.04 645.973333 253.013333 584.96 253.013333 512 253.013333 439.04 311.04 378.026667 384 378.026667 426.666667 378.026667 453.973333 396.373333 469.333333 411.306667L527.36 356.693333C490.666667 320 442.026667 298.666667 384 298.666667 264.96 298.666667 170.666667 392.96 170.666667 512 170.666667 631.04 264.96 725.333333 384 725.333333 506.026667 725.333333 588.373333 640 588.373333 517.973333 588.373333 503.04 588.373333 493.653333 584.96 481.706667L384 481.706667Z"></path>
</svg>
