<svg class="icon" viewBox="0 0 1025 1024" version="1.1"
  xmlns="http://www.w3.org/2000/svg" xmlns:xlink="http://www.w3.org/1999/xlink"
  width="14" height="14">
  <path d="M1000.1 247.9c-15.5-37.3-37.6-70.6-65.7-98.9-54.4-54.8-125.8-85-201-85-85.7 0-166 39-221.4 107.4C456.6 103 376.3 64 290.6 64c-75.1 0-146.5 30.4-201.1 85.6-28.2 28.5-50.4 61.9-65.8 99.3-16 38.8-24 79.9-23.6 122.2 0.7 91.7 40.1 177.2 108.1 234.8 3.1 2.6 6 5.1 8.9 7.8 14.9 13.4 58 52.8 112.6 102.7 93.5 85.5 209.9 191.9 257.5 234.2 7 6.1 15.8 9.5 24.9 9.5 9.2 0 18.1-3.4 24.9-9.5 34.5-30.7 105.8-95.9 181.4-165 74.2-67.8 150.9-138 195.8-178.2 69.5-57.9 109.6-144.4 109.9-237.3 0.1-42.5-8-83.6-24-122.2z"
   fill="#8a8a8a"></path>
</svg>
