<svg class="icon" viewBox="0 0 1024 1024" version="1.1"
  xmlns="http://www.w3.org/2000/svg" xmlns:xlink="http://www.w3.org/1999/xlink"
  width="36" height="36">
  <path d="M853.333333 277.333333C853.333333 289.28 843.946667 298.666667 832 298.666667L746.666667 298.666667C734.72 298.666667 725.333333 289.28 725.333333 277.333333L725.333333 192C725.333333 180.053333 734.72 170.666667 746.666667 170.666667L832 170.666667C843.946667 170.666667 853.333333 180.053333 853.333333 192M192 853.333333C180.053333 853.333333 170.666667 843.946667 170.666667 832L170.666667 469.333333 259.84 469.333333C257.28 482.986667 256 497.493333 256 512 256 653.226667 370.773333 768 512 768 653.226667 768 768 653.226667 768 512 768 497.493333 766.293333 482.986667 764.16 469.333333L853.333333 469.333333 853.333333 832C853.333333 843.946667 843.946667 853.333333 832 853.333333M512 341.333333C606.293333 341.333333 682.666667 417.706667 682.666667 512 682.666667 606.293333 606.293333 682.666667 512 682.666667 417.706667 682.666667 341.333333 606.293333 341.333333 512 341.333333 417.706667 417.706667 341.333333 512 341.333333M853.333333 85.333333 170.666667 85.333333C123.306667 85.333333 85.333333 123.306667 85.333333 170.666667L85.333333 853.333333C85.333333 900.266667 123.733333 938.666667 170.666667 938.666667L853.333333 938.666667C900.266667 938.666667 938.666667 900.266667 938.666667 853.333333L938.666667 170.666667C938.666667 123.306667 900.266667 85.333333 853.333333 85.333333Z"></path>
</svg>
