<svg class="icon" viewBox="0 0 1024 1024" version="1.1"
  xmlns="http://www.w3.org/2000/svg" xmlns:xlink="http://www.w3.org/1999/xlink"
  width="36" height="36">
  <path d="M912.569234 73.142857a88.429714 88.429714 0 0 1 88.576 89.161143v296.557714C1001.145234 732.562286 782.301806 950.857143 510.28352 950.857143A489.837714 489.837714 0 0 1 18.288091 458.861714V162.304A90.002286 90.002286 0 0 1 107.449234 73.142857h805.156572z m-402.285714 608a68.388571 68.388571 0 0 0 46.848-18.870857l230.838857-221.696a68.022857 68.022857 0 0 0 21.138286-48.566857 67.547429 67.547429 0 0 0-114.285714-48.566857l-184.576 177.152-184.576-177.152a67.328 67.328 0 0 0-46.299429-18.870857 67.547429 67.547429 0 0 0-46.884571 116.004571l231.424 221.696c11.995429 11.995429 29.147429 18.870857 46.299428 18.870857z"></path>
</svg>
