<svg class="icon" viewBox="0 0 1024 1024" version="1.1"
  xmlns="http://www.w3.org/2000/svg" xmlns:xlink="http://www.w3.org/1999/xlink"
  width="30" height="30">
  <path d="M819.157333 1024C819.157333 574.592 449.408 204.8 0 204.8V0c561.706667 0 1024 462.293333 1024 1024h-204.842667zM140.416 743.04a140.8 140.8 0 0 1 140.501333 140.586667A140.928 140.928 0 0 1 140.074667 1024C62.72 1024 0 961.109333 0 883.626667s62.933333-140.544 140.416-140.586667zM678.784 1024h-199.04c0-263.210667-216.533333-479.786667-479.744-479.786667V345.173333c372.352 0 678.784 306.517333 678.784 678.826667z"></path>
</svg>
