<svg class="icon" style="" viewBox="0 0 1024 1024" version="1.1"
  xmlns="http://www.w3.org/2000/svg" xmlns:xlink="http://www.w3.org/1999/xlink"
  width="36" height="36">
  <path d="M926.917973 37.80608C959.65184 37.80608 986.19392 64.34816 986.19392 97.082027L986.19392 926.917973C986.19392 959.65184 959.65184 986.19392 926.917973 986.19392L97.082027 986.19392C64.34816 986.19392 37.80608 959.65184 37.80608 926.917973L37.80608 97.082027C37.80608 64.34816 64.34816 37.80608 97.082027 37.80608zM176.653653 176.19968 176.653653 252.678827 825.658027 252.678827 825.658027 176.19968zM217.719467 316.146347 217.719467 628.08064 273.524053 628.08064 341.292373 770.39616 157.259093 770.39616 157.259093 845.417813 842.949973 845.417813 842.949973 770.39616 654.226773 770.39616 722.899627 628.08064 783.67744 628.08064 783.67744 316.146347zM684.885333 392.891733 684.885333 553.987413 312.576 553.987413 312.576 392.891733zM570.770773 770.39616 426.653013 770.39616 359.621973 628.08064 639.443627 628.08064z"></path>
</svg>
