<svg class="icon" viewBox="0 0 1024 1024" version="1.1"
  xmlns="http://www.w3.org/2000/svg" xmlns:xlink="http://www.w3.org/1999/xlink"
  width="33" height="33">
  <path d="M872.405333 872.618667h-151.637333v-237.610667c0-56.661333-1.152-129.578667-79.018667-129.578667-79.061333 0-91.136 61.653333-91.136 125.397334v241.792H398.976V384h145.664v66.602667h1.962667c20.352-38.4 69.845333-78.933333 143.786666-78.933334 153.642667 0 182.058667 101.12 182.058667 232.746667v268.202667zM227.712 317.141333a87.978667 87.978667 0 0 1-88.021333-88.106666 88.064 88.064 0 1 1 88.021333 88.106666z m76.032 555.477334H151.68V384h152.064v488.618667zM948.266667 0H75.562667C33.792 0 0 33.024 0 73.770667v876.458666C0 991.018667 33.792 1024 75.562667 1024h872.576C989.866667 1024 1024 991.018667 1024 950.229333V73.770667C1024 33.024 989.866667 0 948.138667 0h0.128z"></path>
</svg>
