<svg class="icon" viewBox="0 0 1024 1024" version="1.1"
  xmlns="http://www.w3.org/2000/svg" xmlns:xlink="http://www.w3.org/1999/xlink"
  width="18" height="18">
  <path d="M623.36 272.96 473.216 423.04C467.2 429.056 467.072 438.656 472.896 444.416c0 0-6.72-6.656 1.6 1.6C496.064 467.648 528.64 500.224 528.64 500.224 534.464 506.048 544 505.856 550.016 499.904l150.08-150.144 67.328 66.432c9.024 8.96 27.456 4.544 30.4-8.96 19.968-92.608 46.656-227.52 46.656-227.52 6.848-34.496-16.192-56.704-49.92-49.92 0 0-134.656 26.816-227.328 46.784C560.32 178.048 556.352 182.272 554.752 187.136c-3.2 6.208-3.008 14.208 3.776 20.992L623.36 272.96z"></path>
  <path d="M841.152 457.152c-30.528 0-54.784 24.512-54.784 54.656l0 274.752L237.696 786.56 237.696 237.696l206.016 0c6.656 0 10.752 0 13.248 0C487.68 237.696 512 213.184 512 182.848 512 152.32 487.36 128 456.96 128L183.04 128C153.216 128 128 152.576 128 182.848c0 3.136 0.256 6.272 0.768 9.28C128.256 195.136 128 198.272 128 201.408l0 639.488c0 0.064 0 0.192 0 0.256 0 0.128 0 0.192 0 0.32 0 30.528 24.512 54.784 54.784 54.784l646.976 0c6.592 0 9.728 0 11.712 0 28.736 0 52.928-22.976 54.464-51.968C896 843.264 896 842.304 896 841.344l0-20.352L896 561.408 896 512.128C896 481.792 871.424 457.152 841.152 457.152z"></path>
</svg>
