<svg class="icon" viewBox="0 0 1024 1024" version="1.1"
  xmlns="http://www.w3.org/2000/svg" xmlns:xlink="http://www.w3.org/1999/xlink"
  width="36" height="36">
  <path d="M809.714286 932.571429l-638.857143 0 0-274.285714-91.428571 0 0 365.714286 821.714286 0 0-365.714286-91.428571 0 0 274.285714zm-538.285714-299.428571l18.857143-89.714286 447.428571 94.285714-18.857143 89.142857zm58.857143-213.714286l38.285714-83.428571 414.285714 193.714286-38.285714 82.857143zm114.857143-203.428571l58.285714-70.285714 350.857143 293.142857-58.285714 70.285714zm226.857143-216l272.571429 366.285714-73.142857 54.857143-272.571429-366.285714zm-410.285714 840.571429l0-90.857143 457.142857 0 0 90.857143-457.142857 0z"></path>
</svg>
