<svg class="icon" viewBox="0 0 1024 1024" version="1.1"
  xmlns="http://www.w3.org/2000/svg" xmlns:xlink="http://www.w3.org/1999/xlink"
  width="36" height="36">
  <path d="M556.716946 378.027729l133.939525 0 0 89.307002L556.716946 467.334731 556.716946 601.318258c0 58.898435 8.290827 92.557022 53.140291 89.809445 10.382465-0.677429 22.25077-1.855254 35.687804-5.586229 13.437034-3.729951 24.257473-7.458879 32.372292-11.190877l12.739139-5.606695 0 82.546018c-3.403516 2.070148-8.463766 4.820796-15.007809 8.048303-6.631024 3.338025-21.029966 7.656377-43.016723 13.045107-21.988804 5.41022-44.937468 8.070816-68.844971 8.070816-51.395554 0-89.177042-10.994402-113.608477-33.17968-24.343431-22.097274-27.572986-56.147788-27.572986-101.195773L422.605505 467.334731l-89.263 0-0.435928-66.64077c38.480406-12.369725 67.798129-29.734208 88.128153-52.114938 20.332071-22.273283 33.333176-57.021691 38.829354-104.22783l96.853885-0.393973L556.717969 378.027729zM958.70846 243.958244l0 536.105001c0 98.730629-80.013335 178.722474-178.615027 178.722474L243.991502 958.785719c-98.774631 0-178.700985-79.991846-178.700985-178.722474L65.290517 243.958244c0-98.642624 79.925331-178.744987 178.700985-178.744987l536.102954 0C878.695125 65.213257 958.70846 145.31562 958.70846 243.958244zM869.44546 288.612257c0-74.015737-60.033281-133.961014-134.027529-133.961014L288.667004 154.651242c-73.994248 0-134.115534 59.945277-134.115534 133.961014l0 446.775486c0 74.015737 60.121286 133.983527 134.115534 133.983527l446.750927 0c73.994248 0 134.027529-59.96779 134.027529-133.983527L869.44546 288.612257z"></path>
</svg>
