<svg class="icon" viewBox="0 0 1024 1024" version="1.1"
  xmlns="http://www.w3.org/2000/svg" xmlns:xlink="http://www.w3.org/1999/xlink"
  width="36" height="36">
  <path d="M385.714286 733.714286q12-19.428571 6.285714-39.428571t-25.714286-28.571429q-19.428571-8-41.714286-0.571429t-34.285714 26.285714q-12.571429 19.428571-7.428571 39.142857t24.571429 28.857143 42.571429 1.428571 35.714286-27.142857zm53.714286-69.142857q4.571429-7.428571 2-15.142857t-10-10.571429q-8-2.857143-16.285714 2.857143t-12.285714 10.571429q-9.714286 17.714286 7.428571 25.714286 8 2.857143 16.571429 2.857143t12.571429-10.571429zm99.428571 61.142857q-25.714286 58.285714-90.285714 85.714286t-128 6.857143q-61.142857-19.428571-84.285714-72.285714t3.714286-107.142857q26.857143-53.142857 86.571429-79.428571t120.285714-10.857143q63.428571 16.571429 90.571429 68.285714t1.428571 108.857143zm178.285714-91.428571q-5.142857-54.857143-50.857143-97.142857t-119.142857-62.285714-156.857143-12q-127.428571 13.142857-211.142857 80.857143t-75.714286 151.142857q5.142857 54.857143 50.857143 97.142857t119.142857 62.285714 156.857143 12q127.428571-13.142857 211.142857-80.857143t75.714286-151.142857zm176 2.285714q0 38.857143-21.142857 79.714286t-62.285714 78.285714-96.285714 67.142857-129.142857 47.428571-154.571429 17.714286-157.142857-19.142857-137.428571-53.142857-98-86.285714-37.142857-114q0-65.714286 39.714286-140t112.857143-147.428571q96.571429-96.571429 195.142857-134.857143t140.857143 4q37.142857 36.571429 11.428571 119.428571-2.285714 8-0.571429 11.428571t5.714286 4 8.285714 2.857143 7.714286-2l3.428571-1.142857q79.428571-33.714286 140.571429-33.714286t87.428571 34.857143q25.714286 36 0 101.714286-1.142857 7.428571-2.571429 11.428571t2.571429 7.142857 6.857143 4.285714 9.714286 3.428571q32.571429 10.285714 58.857143 26.857143t45.714286 46.571429 19.428571 66.571429zm-42.285714-356.571429q24 26.857143 31.142857 62t-3.714286 67.142857q-4.571429 13.142857-16.857143 19.428571t-25.428571 2.285714q-13.142857-4.571429-19.428571-16.857143t-2.285714-25.428571q11.428571-36-13.714286-63.428571t-61.142857-20q-13.714286 2.857143-25.714286-4.571429t-14.285714-21.142857q-2.857143-13.714286 4.571429-25.428571t21.142857-14.571429q34.285714-7.428571 68 3.142857t57.714286 37.428571zm103.428571-93.142857q49.714286 54.857143 64.285714 127.142857t-7.714286 138q-5.142857 15.428571-19.428571 22.857143t-29.714286 2.285714-22.857143-19.428571-2.857143-29.714286q16-46.857143 5.714286-98.285714t-45.714286-90.285714q-35.428571-39.428571-84.571429-54.571429t-98.857143-4.857143q-16 3.428571-29.714286-5.428571t-17.142857-24.857143 5.428571-29.428571 24.857143-16.857143q70.285714-14.857143 139.428571 6.571429t118.857143 76.857143z"></path>
</svg>
